<svg width="64" height="64" viewBox="0 0 64 64" fill="none" xmlns="http://www.w3.org/2000/svg">
<path d="M58.0775 0.000376187C57.4474 0.000376187 56.7877 0.212068 56.3077 0.692068L55.3083 1.77022L54.8455 1.38622C54.7313 1.26694 54.5942 1.172 54.4423 1.10715C54.2904 1.0423 54.127 1.00886 53.9619 1.00886C53.7967 1.00886 53.6333 1.0423 53.4814 1.10715C53.3295 1.172 53.1924 1.26694 53.0782 1.38622C52.9589 1.50042 52.8639 1.6376 52.7991 1.78947C52.7342 1.94134 52.7008 2.10477 52.7008 2.26991C52.7008 2.43506 52.7342 2.59849 52.7991 2.75036C52.8639 2.90223 52.9589 3.0394 53.0782 3.15361L53.4622 3.61638L52.8468 4.23176L52.384 3.8453C52.2698 3.72601 52.1326 3.63108 51.9808 3.56623C51.8289 3.50137 51.6655 3.46794 51.5003 3.46794C51.3352 3.46794 51.1717 3.50137 51.0199 3.56623C50.868 3.63108 50.7308 3.72601 50.6166 3.8453C50.4966 3.95957 50.401 4.09704 50.3357 4.24937C50.2704 4.4017 50.2367 4.56571 50.2367 4.73145C50.2367 4.89719 50.2704 5.06121 50.3357 5.21354C50.401 5.36587 50.4966 5.50334 50.6166 5.61761L51.0006 6.07792L50.5378 6.53822C50.2393 6.83367 50.025 7.20334 49.9168 7.60917C49.8087 8.015 49.8106 8.44232 49.9225 8.84715L39.1532 19.6164C36.9305 17.6718 33.568 15.385 29.9225 15.385C28.3052 15.385 26.6437 15.8773 24.9994 16.9998C21.3514 19.4933 22.0505 23.2718 19.7686 25.4625C17.2086 27.9241 10.2105 25.9401 3.76862 32.3844C-2.67323 38.8238 0.182158 47.7321 8.384 55.6164C13.3022 60.7315 18.5945 63.769 23.4609 63.769C26.3926 63.769 29.1914 62.6564 31.616 60.2318C38.0578 53.7899 36.0739 46.7967 38.5378 44.2318C40.7286 41.9548 44.5809 42.7278 47.0769 39.0773C50.7372 33.7284 47.2049 28.0718 44.384 24.8471L55.1532 14.0779C55.9655 14.2847 56.8246 14.1001 57.4622 13.4625L57.9225 12.9998L58.3852 13.3862C58.4913 13.5057 58.6212 13.6016 58.7667 13.6678C58.9121 13.7339 59.0698 13.7688 59.2295 13.7702C59.5761 13.7679 59.9078 13.629 60.1526 13.3838C60.2719 13.2696 60.3668 13.1324 60.4317 12.9805C60.4965 12.8286 60.53 12.6652 60.53 12.5001C60.53 12.3349 60.4965 12.1715 60.4317 12.0196C60.3668 11.8677 60.2719 11.7306 60.1526 11.6164L59.7686 11.1536L60.384 10.5382L60.8468 10.9247C60.9528 11.0442 61.0828 11.1401 61.2282 11.2062C61.3736 11.2724 61.5313 11.3073 61.6911 11.3087C62.0376 11.3063 62.3693 11.1675 62.6142 10.9222C62.7334 10.808 62.8284 10.6708 62.8932 10.519C62.9581 10.3671 62.9915 10.2037 62.9915 10.0385C62.9915 9.87339 62.9581 9.70996 62.8932 9.55808C62.8284 9.40621 62.7334 9.26904 62.6142 9.15484L62.2302 8.69207L63.3083 7.69268C63.5368 7.46613 63.7181 7.19657 63.8419 6.89957C63.9657 6.60256 64.0294 6.28398 64.0294 5.96222C64.0294 5.64046 63.9657 5.32189 63.8419 5.02488C63.7181 4.72787 63.5368 4.45831 63.3083 4.23176L59.7662 0.689607C59.5462 0.466197 59.283 0.289883 58.9927 0.171395C58.7024 0.052906 58.391 -0.00528033 58.0775 0.000376187ZM57.9225 2.92468C58.112 2.92468 58.3163 2.93453 58.4615 3.0773C58.6003 3.22249 58.6777 3.41557 58.6777 3.61638C58.6777 3.81719 58.6003 4.01027 58.4615 4.15545L53.5385 9.07853C53.3955 9.22216 53.202 9.30429 52.9994 9.30745C52.7975 9.30198 52.6054 9.21915 52.4628 9.07607C52.3248 8.93101 52.2478 8.73845 52.2478 8.53822C52.2478 8.338 52.3248 8.14544 52.4628 8.00038L57.3858 3.0773C57.5286 2.93453 57.7354 2.92468 57.9225 2.92468ZM60.384 5.38622C60.5735 5.38622 60.7779 5.39361 60.9231 5.53884C61.0624 5.68373 61.1402 5.87692 61.1402 6.07792C61.1402 6.27891 61.0624 6.4721 60.9231 6.61699L56 11.5401C55.8564 11.6828 55.6634 11.7648 55.4609 11.769C55.2593 11.7642 55.0673 11.6822 54.9243 11.5401C54.7856 11.3949 54.7082 11.2018 54.7082 11.001C54.7082 10.8002 54.7856 10.6071 54.9243 10.4619L59.8474 5.53884C59.9902 5.39607 60.1969 5.38622 60.384 5.38622ZM29.9225 18.8435C32.2855 18.8435 34.7815 20.4484 36.6917 22.0755L28.4603 30.3068C28.2782 30.2871 28.1108 30.2281 27.9237 30.2281C26.3748 30.2333 24.8908 30.8509 23.7956 31.9461C22.7003 33.0413 22.0827 34.5253 22.0775 36.0742C22.0827 37.6231 22.7003 39.1071 23.7956 40.2023C24.8908 41.2976 26.3748 41.9152 27.9237 41.9204C29.4726 41.9152 30.9566 41.2976 32.0518 40.2023C33.1471 39.1071 33.7647 37.6231 33.7698 36.0742C33.7698 35.8871 33.7108 35.7198 33.6935 35.5351L41.9988 27.2299C44.1354 29.7062 46.5477 33.689 44.2314 37.0761C43.4782 38.1739 42.5305 38.5776 40.8468 39.1511C39.3649 39.6558 37.5114 40.2711 36 41.8441C34.3409 43.5696 33.9717 45.8391 33.5385 48.2293C32.992 51.2299 32.3791 54.6219 29.1545 57.8441C27.4609 59.5376 25.5951 60.3819 23.4609 60.3819C19.7268 60.3819 15.2468 57.8071 10.8455 53.2287C10.8213 53.2021 10.7959 53.1766 10.7692 53.1524C6.2277 48.793 3.65293 44.3327 3.616 40.6158C3.59139 38.4471 4.43816 36.5665 6.15385 34.8459C9.37847 31.6213 12.7705 31.0059 15.7686 30.4619C18.1588 30.0287 20.4308 29.5831 22.1539 27.9241C23.7145 26.4275 24.3323 24.6182 24.8468 23.1536C25.4375 21.4748 25.8068 20.6084 26.9243 19.8453C27.8794 19.193 28.8689 18.8435 29.9225 18.8435ZM13.6911 40.0742C13.4889 40.0787 13.2965 40.1617 13.1545 40.3056L11.616 41.8465C11.475 41.9905 11.396 42.1841 11.396 42.3856C11.396 42.5872 11.475 42.7807 11.616 42.9247L21.0757 52.3844C21.3662 52.6724 21.8634 52.6724 22.1539 52.3844L23.6923 50.8459C23.8314 50.7014 23.9092 50.5087 23.9092 50.3081C23.9092 50.1075 23.8314 49.9147 23.6923 49.7702L14.2302 40.3081C14.0882 40.1641 13.8957 40.0811 13.6935 40.0767L13.6911 40.0742Z" fill="#C46A2B"/>
</svg>
